<mxfile host="Electron" modified="2023-08-24T12:03:57.013Z" agent="Mozilla/5.0 (Windows NT 10.0; Win64; x64) AppleWebKit/537.36 (KHTML, like Gecko) draw.io/21.3.7 Chrome/112.0.5615.204 Electron/24.5.0 Safari/537.36" etag="2titf7lLlU98piHhkgYe" version="21.3.7" type="device">
  <diagram name="Page-1" id="W2-x_QsG-iiYwRm8Ojz_">
    <mxGraphModel dx="1418" dy="828" grid="1" gridSize="10" guides="1" tooltips="1" connect="1" arrows="1" fold="1" page="1" pageScale="1" pageWidth="850" pageHeight="1100" math="0" shadow="0">
      <root>
        <mxCell id="0" />
        <mxCell id="1" parent="0" />
        <mxCell id="Ocy4P3Z2TOHNAnS6clSy-1" value="SC.Client &lt;font style=&quot;font-size: 12px; font-weight: normal;&quot;&gt;(WPF)&lt;/font&gt;&lt;br&gt;&lt;span style=&quot;font-weight: normal;&quot;&gt;&lt;font style=&quot;font-size: 12px;&quot;&gt;(Views, ViewModels)&lt;/font&gt;&lt;/span&gt;" style="sketch=0;outlineConnect=0;gradientColor=none;fontColor=#000000;strokeColor=none;fillColor=#879196;dashed=0;verticalLabelPosition=bottom;verticalAlign=top;align=center;html=1;fontSize=16;fontStyle=1;aspect=fixed;shape=mxgraph.aws4.illustration_desktop;pointerEvents=1" parent="1" vertex="1">
          <mxGeometry x="300" y="270" width="100" height="91" as="geometry" />
        </mxCell>
        <mxCell id="Ocy4P3Z2TOHNAnS6clSy-3" value="&lt;font style=&quot;&quot;&gt;&lt;b style=&quot;font-size: 16px;&quot;&gt;SC.Api &lt;/b&gt;&lt;font style=&quot;font-size: 12px;&quot;&gt;(ASP.NET Core)&lt;/font&gt;&lt;br&gt;(Controllers,&amp;nbsp;Repository)&lt;br&gt;&lt;/font&gt;" style="image;points=[];aspect=fixed;html=1;align=center;shadow=0;dashed=0;image=img/lib/allied_telesis/computer_and_terminals/Server_Desktop.svg;" parent="1" vertex="1">
          <mxGeometry x="511" y="150" width="78.89" height="100" as="geometry" />
        </mxCell>
        <mxCell id="Ocy4P3Z2TOHNAnS6clSy-4" value="SC.Library &lt;span style=&quot;font-weight: normal;&quot;&gt;&lt;font style=&quot;font-size: 12px;&quot;&gt;(Class Library)&lt;/font&gt;&lt;/span&gt;&lt;br&gt;&lt;span style=&quot;font-weight: normal;&quot;&gt;&lt;font style=&quot;font-size: 12px;&quot;&gt;(Models)&lt;/font&gt;&lt;/span&gt;" style="sketch=0;pointerEvents=1;shadow=0;dashed=0;html=1;strokeColor=none;fillColor=#505050;labelPosition=center;verticalLabelPosition=top;verticalAlign=bottom;outlineConnect=0;align=center;shape=mxgraph.office.concepts.list_library;fontSize=16;fontStyle=1" parent="1" vertex="1">
          <mxGeometry x="350" y="140" width="60" height="50" as="geometry" />
        </mxCell>
        <mxCell id="Ocy4P3Z2TOHNAnS6clSy-11" style="rounded=0;orthogonalLoop=1;jettySize=auto;html=1;exitX=-0.021;exitY=0.656;exitDx=0;exitDy=0;exitPerimeter=0;entryX=1.018;entryY=0.578;entryDx=0;entryDy=0;entryPerimeter=0;startArrow=classic;startFill=1;dashed=1;" parent="1" source="Ocy4P3Z2TOHNAnS6clSy-7" target="Ocy4P3Z2TOHNAnS6clSy-3" edge="1">
          <mxGeometry relative="1" as="geometry" />
        </mxCell>
        <mxCell id="Ocy4P3Z2TOHNAnS6clSy-7" value="&lt;font style=&quot;font-size: 16px;&quot;&gt;&lt;b&gt;Oracle&lt;/b&gt;&lt;/font&gt;" style="shape=datastore;whiteSpace=wrap;html=1;" parent="1" vertex="1">
          <mxGeometry x="700" y="140" width="70" height="70" as="geometry" />
        </mxCell>
        <mxCell id="Ocy4P3Z2TOHNAnS6clSy-10" value="" style="endArrow=none;html=1;rounded=0;shape=flexArrow;endFill=0;startArrow=block;endSize=3;startSize=3.291685393258427;width=4.224719101123595;startWidth=9.367283950617283;" parent="1" source="Ocy4P3Z2TOHNAnS6clSy-1" target="Ocy4P3Z2TOHNAnS6clSy-4" edge="1">
          <mxGeometry width="50" height="50" relative="1" as="geometry">
            <mxPoint x="290" y="270" as="sourcePoint" />
            <mxPoint x="340" y="220" as="targetPoint" />
          </mxGeometry>
        </mxCell>
        <mxCell id="Ocy4P3Z2TOHNAnS6clSy-12" style="rounded=0;orthogonalLoop=1;jettySize=auto;html=1;exitX=-0.009;exitY=0.821;exitDx=0;exitDy=0;exitPerimeter=0;startArrow=classic;startFill=1;" parent="1" source="Ocy4P3Z2TOHNAnS6clSy-3" target="Ocy4P3Z2TOHNAnS6clSy-1" edge="1">
          <mxGeometry relative="1" as="geometry">
            <mxPoint x="661" y="137" as="sourcePoint" />
            <mxPoint x="598" y="177" as="targetPoint" />
          </mxGeometry>
        </mxCell>
        <mxCell id="Ocy4P3Z2TOHNAnS6clSy-18" value="HTTP" style="edgeLabel;html=1;align=center;verticalAlign=middle;resizable=0;points=[];" parent="Ocy4P3Z2TOHNAnS6clSy-12" vertex="1" connectable="0">
          <mxGeometry x="0.1801" y="-2" relative="1" as="geometry">
            <mxPoint as="offset" />
          </mxGeometry>
        </mxCell>
        <mxCell id="Ocy4P3Z2TOHNAnS6clSy-14" value="SC.ServerWayFrame&amp;nbsp;&lt;span style=&quot;font-weight: normal;&quot;&gt;&lt;font style=&quot;font-size: 12px;&quot;&gt;(Class Library)&lt;/font&gt;&lt;/span&gt;&lt;br&gt;&lt;span style=&quot;font-weight: normal;&quot;&gt;&lt;font style=&quot;font-size: 12px;&quot;&gt;(Cashe)&lt;/font&gt;&lt;/span&gt;" style="sketch=0;pointerEvents=1;shadow=0;dashed=0;html=1;strokeColor=none;fillColor=#505050;labelPosition=center;verticalLabelPosition=top;verticalAlign=bottom;outlineConnect=0;align=center;shape=mxgraph.office.concepts.list_library;fontSize=16;fontStyle=1" parent="1" vertex="1">
          <mxGeometry x="120" y="160" width="60" height="50" as="geometry" />
        </mxCell>
        <mxCell id="Ocy4P3Z2TOHNAnS6clSy-19" value="" style="endArrow=none;html=1;rounded=0;shape=flexArrow;endFill=0;startArrow=block;endSize=3;startSize=3.291685393258427;width=4.224719101123595;startWidth=9.367283950617283;" parent="1" source="Ocy4P3Z2TOHNAnS6clSy-14" target="Ocy4P3Z2TOHNAnS6clSy-4" edge="1">
          <mxGeometry width="50" height="50" relative="1" as="geometry">
            <mxPoint x="369" y="280" as="sourcePoint" />
            <mxPoint x="385" y="200" as="targetPoint" />
          </mxGeometry>
        </mxCell>
        <mxCell id="Ocy4P3Z2TOHNAnS6clSy-20" value="" style="endArrow=none;html=1;rounded=0;shape=flexArrow;endFill=0;startArrow=block;endSize=3;startSize=3.291685393258427;width=4.224719101123595;startWidth=9.367283950617283;exitX=-0.013;exitY=0.4;exitDx=0;exitDy=0;exitPerimeter=0;" parent="1" source="Ocy4P3Z2TOHNAnS6clSy-3" target="Ocy4P3Z2TOHNAnS6clSy-4" edge="1">
          <mxGeometry width="50" height="50" relative="1" as="geometry">
            <mxPoint x="369" y="280" as="sourcePoint" />
            <mxPoint x="385" y="200" as="targetPoint" />
          </mxGeometry>
        </mxCell>
      </root>
    </mxGraphModel>
  </diagram>
</mxfile>
